<svg width="558" height="320" viewBox="0 0 558 320" fill="none" xmlns="http://www.w3.org/2000/svg">
<path d="M72.4697 154.49C28.2697 154.49 5.14973 121.17 5.14973 80.37C5.14973 39.74 21.2997 6.24999 75.3597 6.24999C90.8297 6.24999 103.58 8.62999 113.1 13.9C127.21 21.38 126.87 37.36 119.22 49.09C112.59 59.63 100.18 66.26 87.5997 59.97C84.7097 58.44 80.6297 57.25 75.3597 57.25C59.2097 57.25 52.9197 68.13 52.9197 80.37C52.9197 92.61 59.2097 103.49 72.9797 103.49C78.9297 103.49 86.7497 100.94 90.4897 98.39C94.5697 95.67 97.2897 93.29 99.6697 89.89C101.37 87.34 98.4797 85.47 96.7797 87.68C94.9097 90.4 91.6797 93.97 87.9397 95.33C75.6997 99.75 66.3497 93.46 66.3497 83.43C66.3497 74.93 71.1097 70.68 80.7997 69.49C93.0397 67.96 105.96 67.62 117.86 70.34C128.91 72.89 136.73 83.6 136.73 95.67C136.73 128.31 114.46 154.49 72.4697 154.49ZM144.393 102.64C144.563 69.49 166.323 45.86 199.813 45.86C233.643 45.86 249.793 74.59 249.793 102.64C249.453 131.03 229.563 156.19 199.303 156.19C167.683 156.19 144.393 133.24 144.393 102.64ZM191.993 112.16C190.633 114.71 195.563 117.26 197.943 114.03C202.533 107.23 203.723 98.05 203.893 89.55C204.063 85.64 198.283 85.81 198.113 88.7C197.433 97.03 196.073 104 191.993 112.16ZM255.956 102.64C256.126 69.49 277.886 45.86 311.376 45.86C345.206 45.86 361.356 74.59 361.356 102.64C361.016 131.03 341.126 156.19 310.866 156.19C279.246 156.19 255.956 133.24 255.956 102.64ZM303.556 112.16C302.196 114.71 307.126 117.26 309.506 114.03C314.096 107.23 315.286 98.05 315.456 89.55C315.626 85.64 309.846 85.81 309.676 88.7C308.996 97.03 307.636 104 303.556 112.16ZM453.708 75.44C455.578 74.76 456.428 73.06 455.408 70.85C452.688 65.58 445.718 57.42 438.748 53.17C438.918 47.56 439.428 35.32 439.938 30.56C441.298 17.98 449.118 7.94999 463.228 7.94999C477.678 7.94999 485.498 17.98 486.688 30.56C488.558 48.75 489.408 72.04 489.068 91.42C488.388 132.73 470.878 154.32 426.508 154.49C397.268 154.49 367.518 141.91 367.518 98.39C367.518 63.88 389.448 50.96 410.698 50.96C427.698 50.96 442.148 58.44 450.308 73.4C451.158 75.1 452.008 75.78 453.708 75.44ZM407.808 109.61C415.968 107.91 424.128 105.02 431.098 99.75C433.818 97.71 430.418 92.61 428.038 94.31C420.728 99.41 414.098 101.96 405.768 103.49C403.218 104.17 403.728 110.12 407.808 109.61ZM158.177 239.52C170.077 243.26 175.517 254.65 175.517 274.2C175.517 298.85 157.837 310.24 130.467 313.47C123.837 314.15 116.357 314.49 109.047 314.49C98.847 314.49 88.647 313.81 79.807 312.96C67.057 311.6 53.967 301.23 52.777 283.38C51.077 253.8 51.587 227.28 52.947 197.36C53.967 179.34 67.057 169.14 79.807 167.78C88.477 166.93 98.677 166.25 108.707 166.25C116.357 166.08 123.837 166.42 130.467 167.27C157.837 170.16 173.137 178.32 173.137 206.2C173.137 222.18 165.827 237.48 141.177 237.48C138.457 237.48 138.457 242.58 141.177 242.58C145.937 242.58 152.397 242.24 158.177 239.52ZM97.487 214.7C104.627 218.61 111.937 219.97 119.927 219.12C123.837 218.61 123.327 212.66 120.607 212.83C112.107 213.34 106.157 211.98 98.847 208.92C96.127 207.73 93.917 212.66 97.487 214.7ZM97.487 264.68C104.627 268.59 111.937 269.95 119.927 269.1C123.837 268.59 123.327 262.64 120.607 262.81C112.107 263.32 106.157 261.96 98.847 258.73C96.127 257.54 93.917 262.64 97.487 264.68ZM247.584 314.66C199.474 314.66 186.724 282.7 186.724 242.07C186.724 224.56 187.064 205.86 187.744 189.03C188.594 176.11 198.114 167.95 211.204 167.95C224.294 167.95 233.984 176.11 234.664 189.03C235.514 205.86 235.854 224.56 235.854 242.07C235.854 252.1 237.384 259.92 247.584 259.92C257.784 259.92 259.314 252.1 259.314 242.07C259.314 224.56 259.654 205.86 260.504 189.03C261.014 176.11 270.874 167.95 283.794 167.95C296.884 167.95 306.914 176.11 307.424 189.03C308.274 205.86 308.614 224.56 308.614 242.07C308.614 282.7 295.694 314.66 247.584 314.66ZM359.098 262.98C338.528 249.89 324.078 218.78 320.168 192.43C317.618 174.07 331.388 167.95 345.668 167.95C364.198 167.95 373.038 176.28 374.398 195.15C375.078 205.01 377.288 220.99 381.368 233.91C382.728 238.16 387.488 236.29 386.638 232.89C384.258 223.03 382.048 205.86 381.198 197.02C378.818 173.73 393.268 167.95 413.838 167.95C437.978 167.95 448.348 179.34 444.098 198.55C437.978 226.26 424.208 252.95 408.568 262.98C408.058 269.27 407.718 284.57 407.038 290.52C405.678 303.27 398.028 313.3 383.918 313.3C369.298 313.3 361.818 303.1 360.458 290.52C359.608 281 359.608 272.5 359.098 262.98Z" fill="#0DCC5A"/>
<path d="M498.671 182.768C507.411 179.21 515.141 189.637 509.197 196.966L506.895 199.804C505.102 202.014 504.336 204.884 504.789 207.694L505.368 211.291C506.902 220.815 495.392 226.776 488.499 220.026L488.202 219.735C485.427 217.018 481.328 216.158 477.696 217.531V217.531C468.009 221.192 459.848 209.494 466.629 201.667L468.247 199.8C470.571 197.118 471.299 193.405 470.161 190.044L469.87 189.184C466.633 179.629 477.977 171.837 485.734 178.287L489.398 181.333C491.987 183.486 495.552 184.037 498.671 182.768V182.768Z" fill="#0DCC5A"/>
</svg>
