<svg width="300" height="220" viewBox="0 0 300 220" fill="none" xmlns="http://www.w3.org/2000/svg">
<path d="M149.951 204.369C216.75 204.369 270.901 199.6 270.901 193.718C270.901 187.835 216.75 183.066 149.951 183.066C83.1514 183.066 29 187.835 29 193.718C29 199.6 83.1514 204.369 149.951 204.369Z" fill="#D5ECE8"/>
<path d="M234.391 188.88C234.391 188.88 216.419 152.269 271.242 136.309C271.242 136.309 275.061 191.79 234.391 188.88Z" fill="#DE7160"/>
<mask id="mask0_425_3657" style="mask-type:luminance" maskUnits="userSpaceOnUse" x="231" y="136" width="41" height="53">
<path d="M234.392 188.881C234.392 188.881 216.42 152.27 271.243 136.31C271.243 136.31 275.062 191.79 234.392 188.881Z" fill="white"/>
</mask>
<g mask="url(#mask0_425_3657)">
<path d="M278.595 144.832L278.281 144.305C267.443 150.778 257.578 153.051 254.664 153.618C257.378 150.4 260.055 147.452 262.479 144.899C263.568 144.695 271.038 143.139 278.621 137.468L278.255 136.977C271.871 141.75 265.59 143.559 263.231 144.11C268.495 138.617 272.387 135.136 272.503 135.033L272.096 134.573C271.977 134.678 268.003 138.235 262.645 143.837C263.161 136.865 266.573 130.034 266.609 129.964L266.061 129.687C266.024 129.761 262.316 137.178 261.988 144.527C259.559 147.091 256.876 150.049 254.156 153.276C254.351 144.15 258.245 133.457 258.285 133.347L257.71 133.135C257.668 133.249 253.521 144.631 253.533 154.02C250.91 157.167 248.272 160.554 245.805 164.075C245.325 150.929 249.197 137.37 249.238 137.231L248.648 137.061C248.607 137.203 244.546 151.414 245.225 164.91C243.401 167.561 241.681 170.281 240.151 173.026C237.438 158.894 240.935 146.065 240.971 145.935L240.381 145.77C240.343 145.904 236.683 159.304 239.69 173.869C238.19 176.635 236.89 179.418 235.869 182.176C232.4 172.292 231.725 158.136 231.876 157.319L231.272 157.208C231.11 158.093 231.735 172.861 235.543 183.082C234.612 185.756 233.951 188.398 233.644 190.966L234.253 191.039C234.549 188.56 235.181 186.008 236.07 183.426C236.785 183.576 238.85 183.929 242.402 183.929C242.682 183.929 242.973 183.927 243.272 183.923C247.858 183.851 255.597 183.149 266.417 180.215L266.256 179.622C247.806 184.626 238.122 183.199 236.273 182.839C237.299 179.977 238.64 177.08 240.199 174.203C240.692 174.252 241.978 174.356 243.851 174.356C249.749 174.356 261.341 173.307 271.423 166.107L271.066 165.607C258.421 174.637 243.364 173.858 240.52 173.616C242.086 170.78 243.857 167.966 245.744 165.226C247.636 165.033 264.479 163.097 275.699 154.32L275.322 153.837C264.933 161.963 249.628 164.157 246.208 164.557C248.705 160.984 251.384 157.545 254.046 154.356C255.49 154.112 266.444 152.09 278.595 144.832Z" fill="#F9AB43"/>
</g>
<path opacity="0.1" d="M271.243 136.309C268 137.253 265.02 138.272 262.268 139.348C263.454 142.912 264.104 146.764 264.104 150.784C264.104 169.051 250.726 183.859 234.224 183.859C233.698 183.859 233.175 183.843 232.656 183.813C233.451 186.96 234.391 188.88 234.391 188.88C275.062 191.79 271.243 136.309 271.243 136.309Z" fill="#B0D0CA"/>
<path d="M71.3829 185.011C71.3829 185.011 39.5394 192.631 36.7578 146.706C36.7578 146.706 80.8645 153.562 71.3829 185.011Z" fill="#F9AB43"/>
<mask id="mask1_425_3657" style="mask-type:luminance" maskUnits="userSpaceOnUse" x="36" y="146" width="37" height="40">
<path d="M71.3829 185.011C71.3829 185.011 39.5394 192.631 36.7578 146.706C36.7578 146.707 80.8645 153.562 71.3829 185.011Z" fill="white"/>
</mask>
<g mask="url(#mask1_425_3657)">
<path d="M44.7319 142.442L44.2634 142.595C47.4114 152.264 47.4425 160.421 47.3705 162.812C45.3323 160.107 43.4987 157.479 41.929 155.121C41.9624 154.229 42.0679 148.081 38.9717 141.113L38.5222 141.313C41.1274 147.179 41.4317 152.436 41.4444 154.389C38.0774 149.275 36.042 145.598 35.9815 145.488L35.5499 145.727C35.611 145.838 37.6907 149.594 41.128 154.801C35.7614 153.156 31.0183 149.261 30.9693 149.221L30.6553 149.602C30.7066 149.645 35.8565 153.877 41.551 155.44C43.1276 157.805 44.9676 160.439 47.0127 163.151C39.9029 161.375 32.2227 156.416 32.1431 156.364L31.8752 156.778C31.957 156.832 40.1323 162.113 47.4846 163.772C49.483 166.392 51.6676 169.069 53.987 171.632C43.6116 169.674 33.6829 164.222 33.5815 164.166L33.3435 164.599C33.4472 164.657 43.8519 170.373 54.5367 172.236C56.2891 174.142 58.1141 175.976 59.9909 177.666C48.4475 177.288 39.0253 172.26 38.9296 172.209L38.6957 172.644C38.7942 172.697 48.6354 177.954 60.5689 178.178C62.4682 179.849 64.4171 181.365 66.3948 182.657C58.0426 183.628 46.8421 181.643 46.229 181.38L46.0353 181.835C46.6992 182.12 58.3705 184.252 67.0465 183.075C68.9741 184.282 70.9258 185.271 72.8816 185.968L73.0464 185.503C71.1581 184.829 69.2726 183.879 67.409 182.722C67.6527 182.187 68.2953 180.627 68.9239 177.835C68.9735 177.615 69.0236 177.386 69.0732 177.15C69.8292 173.533 70.6504 167.326 70.2706 158.301L69.7785 158.322C70.4268 173.712 67.5945 181.069 66.9849 182.459C64.9265 181.144 62.897 179.575 60.9198 177.839C61.0449 177.46 61.3549 176.468 61.6868 174.995C62.7316 170.359 63.9636 161.063 60.1137 151.86L59.6596 152.051C64.4886 163.594 61.2109 175.29 60.5182 177.482C58.5757 175.747 56.6867 173.856 54.8756 171.885C55.06 170.365 56.5277 156.782 51.6446 146.404L51.1997 146.615C55.7204 156.224 54.7269 168.643 54.4347 171.402C52.0796 168.805 49.8628 166.088 47.8373 163.429C47.9035 162.25 48.2614 153.282 44.7319 142.442Z" fill="#DE7160"/>
</g>
<path opacity="0.1" d="M36.7578 146.707C36.922 149.424 37.1917 151.947 37.5473 154.301C40.5478 154.002 43.678 154.176 46.8249 154.89C61.1239 158.135 70.3456 171.281 67.4223 184.251C67.3289 184.664 67.2241 185.072 67.1088 185.475C69.7135 185.41 71.3829 185.012 71.3829 185.012C80.8645 153.562 36.7578 146.707 36.7578 146.707Z" fill="#B0D0CA"/>
<path d="M240.896 164.642C240.896 167.186 238.822 169.268 236.286 169.268H63.6168C61.0813 169.268 59.0068 167.186 59.0068 164.642V60.2277C59.0068 57.6833 61.0813 55.6016 63.6168 55.6016H236.286C238.822 55.6016 240.896 57.6833 240.896 60.2277V164.642Z" fill="#56B6A4"/>
<path d="M235.763 61.1758H64.1416V163.693H235.763V61.1758Z" fill="#A7C9C3"/>
<path d="M178.188 169.268H121.715V183.461H178.188V169.268Z" fill="#1F8D79"/>
<path d="M205.216 191.609C194.888 183.242 174.017 177.521 149.95 177.521C125.883 177.521 105.013 183.242 94.6846 191.609H205.216Z" fill="#56B6A4"/>
<path d="M94.6836 193.055C95.6707 193.055 96.6579 193.055 97.645 193.055C100.331 193.055 103.017 193.055 105.703 193.055C109.656 193.055 113.608 193.055 117.561 193.055C122.403 193.055 127.246 193.055 132.089 193.055C137.394 193.055 142.7 193.055 148.004 193.055C153.336 193.055 158.667 193.055 163.999 193.055C168.993 193.055 173.987 193.055 178.981 193.055C183.201 193.055 187.42 193.055 191.64 193.055C194.662 193.055 197.685 193.055 200.706 193.055C202.145 193.055 203.589 193.09 205.028 193.055C205.091 193.053 205.153 193.055 205.214 193.055C207.068 193.055 207.072 190.164 205.214 190.164C204.227 190.164 203.24 190.164 202.253 190.164C199.567 190.164 196.881 190.164 194.195 190.164C190.242 190.164 186.29 190.164 182.337 190.164C177.495 190.164 172.652 190.164 167.809 190.164C162.504 190.164 157.199 190.164 151.894 190.164C146.562 190.164 141.231 190.164 135.899 190.164C130.905 190.164 125.911 190.164 120.917 190.164C116.697 190.164 112.478 190.164 108.258 190.164C105.236 190.164 102.213 190.164 99.1916 190.164C97.7527 190.164 96.3087 190.128 94.8698 190.164C94.8075 190.165 94.7453 190.164 94.6836 190.164C92.8298 190.164 92.8264 193.055 94.6836 193.055Z" fill="#1F8D79"/>
<path d="M226.386 68.3081H73.5117V157.005H226.386V68.3081Z" fill="white"/>
<path d="M226.386 68.3081H73.5117V76.8549H226.386V68.3081Z" fill="#A3F0E2"/>
<path d="M80.9427 72.778C80.9427 73.8582 80.0702 74.7337 78.9938 74.7337C77.9174 74.7337 77.0449 73.8582 77.0449 72.778C77.0449 71.6978 77.9174 70.8223 78.9938 70.8223C80.0696 70.8223 80.9427 71.6978 80.9427 72.778Z" fill="#DE7160"/>
<path d="M87.5052 72.778C87.5052 73.8582 86.6327 74.7337 85.5563 74.7337C84.4799 74.7337 83.6074 73.8582 83.6074 72.778C83.6074 71.6978 84.4799 70.8223 85.5563 70.8223C86.6327 70.8223 87.5052 71.6978 87.5052 72.778Z" fill="#F9AB43"/>
<path d="M94.0696 72.778C94.0696 73.8582 93.1972 74.7337 92.1207 74.7337C91.0443 74.7337 90.1719 73.8582 90.1719 72.778C90.1719 71.6978 91.0443 70.8223 92.1207 70.8223C93.1972 70.8223 94.0696 71.6978 94.0696 72.778Z" fill="#56B6A4"/>
<path d="M203.968 114.371C203.968 119.657 199.441 123.982 193.909 123.982H108.855C103.322 123.982 98.7959 119.657 98.7959 114.371C98.7959 109.085 103.323 104.76 108.855 104.76H193.909C199.441 104.76 203.968 109.085 203.968 114.371Z" fill="#A3F0E2"/>
<path d="M119.836 118.902L116.346 115.643C116.872 114.895 117.144 114.001 117.111 113.069C117.071 111.944 116.596 110.903 115.775 110.136C114.954 109.369 113.885 108.97 112.764 109.01C111.643 109.051 110.606 109.527 109.842 110.351C109.078 111.175 108.679 112.248 108.72 113.372C108.76 114.497 109.234 115.538 110.055 116.305C110.876 117.072 111.945 117.471 113.066 117.431C113.994 117.397 114.863 117.061 115.569 116.48L119.059 119.739L119.836 118.902ZM110.832 115.468C110.234 114.909 109.889 114.15 109.859 113.332C109.83 112.512 110.12 111.731 110.677 111.131C111.233 110.53 111.99 110.184 112.806 110.155C113.622 110.125 114.401 110.416 114.999 110.975C115.597 111.533 115.942 112.292 115.972 113.111C116.001 113.93 115.711 114.711 115.154 115.312C114.597 115.912 113.841 116.258 113.025 116.288C112.209 116.318 111.43 116.026 110.832 115.468Z" fill="#56B6A4"/>
<path d="M134.969 115.198C135.514 115.198 135.956 114.755 135.956 114.208C135.956 113.661 135.514 113.217 134.969 113.217C134.423 113.217 133.981 113.661 133.981 114.208C133.981 114.755 134.423 115.198 134.969 115.198Z" fill="#AEE1D8"/>
<path d="M146.495 115.198C147.04 115.198 147.482 114.755 147.482 114.208C147.482 113.661 147.04 113.217 146.495 113.217C145.95 113.217 145.508 113.661 145.508 114.208C145.508 114.755 145.95 115.198 146.495 115.198Z" fill="#AEE1D8"/>
<path d="M158.019 115.198C158.565 115.198 159.006 114.755 159.006 114.208C159.006 113.661 158.565 113.217 158.019 113.217C157.474 113.217 157.032 113.661 157.032 114.208C157.032 114.755 157.474 115.198 158.019 115.198Z" fill="#AEE1D8"/>
<path d="M169.544 115.198C170.089 115.198 170.531 114.755 170.531 114.208C170.531 113.661 170.089 113.217 169.544 113.217C168.999 113.217 168.557 113.661 168.557 114.208C168.557 114.755 168.999 115.198 169.544 115.198Z" fill="#AEE1D8"/>
<path d="M260.421 33.6855H184.329V117.696H260.421V33.6855Z" fill="#F5F9FF"/>
<path d="M260.421 33.6855H184.329V43.1559H260.421V33.6855Z" fill="#A3F0E2"/>
<path d="M192.566 38.6381C192.566 39.8351 191.599 40.8054 190.406 40.8054C189.213 40.8054 188.246 39.8351 188.246 38.6381C188.246 37.441 189.213 36.4707 190.406 36.4707C191.599 36.4707 192.566 37.4416 192.566 38.6381Z" fill="#DE7160"/>
<path d="M199.837 38.6381C199.837 39.8351 198.87 40.8054 197.677 40.8054C196.485 40.8054 195.518 39.8351 195.518 38.6381C195.518 37.441 196.485 36.4707 197.677 36.4707C198.87 36.4707 199.837 37.4416 199.837 38.6381Z" fill="#F9AB43"/>
<path d="M207.109 38.6381C207.109 39.8351 206.142 40.8054 204.949 40.8054C203.756 40.8054 202.789 39.8351 202.789 38.6381C202.789 37.441 203.756 36.4707 204.949 36.4707C206.142 36.4707 207.109 37.4416 207.109 38.6381Z" fill="#56B6A4"/>
<path d="M238.079 86.3491L234.937 89.5029L263.104 117.769L266.247 114.615L238.079 86.3491Z" fill="#DE7160"/>
<path d="M239.056 84.548L233.143 90.4819L241.385 98.7531L247.298 92.8192L239.056 84.548Z" fill="#56B6A4"/>
<g opacity="0.2">
<path d="M236.509 87.9256C229.142 95.3188 217.154 95.3188 209.786 87.9256C202.419 80.5324 202.419 68.502 209.786 61.1089C217.154 53.7157 229.142 53.7157 236.509 61.1089C243.877 68.502 243.877 80.5324 236.509 87.9256Z" fill="#F5F9FF"/>
</g>
<path d="M238.305 89.7248C229.949 98.1103 216.351 98.1109 207.995 89.7248C199.638 81.3388 199.638 67.6939 207.995 59.3084C216.351 50.9229 229.949 50.9223 238.305 59.3084C246.661 67.6939 246.661 81.3388 238.305 89.7248ZM211.137 62.4617C204.513 69.1089 204.514 79.9237 211.137 86.5704C217.76 93.217 228.538 93.2176 235.161 86.5704C241.785 79.9232 241.785 69.1083 235.161 62.4617C228.538 55.8151 217.761 55.8145 211.137 62.4617Z" fill="#DE7160"/>
<path d="M232.547 67.8634L229.779 65.0859L223.149 71.7401L216.518 65.0859L213.75 67.8634L220.381 74.5175L213.75 81.1711L216.518 83.9491L223.149 77.295L229.779 83.9491L232.547 81.1711L225.916 74.5175L232.547 67.8634Z" fill="#F9AB43"/>
<path d="M101.889 130.747H67.4678V193.149H120.56V148.697L101.889 130.747Z" fill="#DE7160"/>
<path d="M101.889 130.747L120.56 148.697H101.889V130.747Z" fill="#F4AEA6"/>
<path d="M88.3488 154.727C88.3488 156.601 87.2643 158.119 85.9269 158.119C84.5894 158.119 83.5049 156.601 83.5049 154.727C83.5049 152.854 84.5894 151.336 85.9269 151.336C87.2643 151.336 88.3488 152.854 88.3488 154.727Z" fill="white"/>
<path d="M102.028 158.119C103.366 158.119 104.45 156.601 104.45 154.727C104.45 152.854 103.366 151.336 102.028 151.336C100.691 151.336 99.6064 152.854 99.6064 154.727C99.6064 156.601 100.691 158.119 102.028 158.119Z" fill="white"/>
<path d="M87.2429 164.909C88.2507 163.802 89.6522 162.931 91.0472 162.426C94.5773 161.149 97.9899 162.483 100.679 164.909C101.397 165.557 102.463 164.493 101.742 163.842C98.7609 161.153 94.8943 159.573 90.9291 160.874C89.19 161.444 87.4244 162.473 86.1791 163.842C85.5285 164.558 86.5888 165.628 87.2429 164.909Z" fill="white"/>
<path d="M83.7542 25.5298H45.036C42.7264 25.5298 40.8369 27.4259 40.8369 29.7436V56.9981C40.8369 59.3158 42.7264 61.212 45.036 61.212H58.6401L64.3951 68.2466L70.1501 61.212H83.7542C86.0638 61.212 87.9533 59.3158 87.9533 56.9981V29.7436C87.9533 27.4259 86.0638 25.5298 83.7542 25.5298Z" fill="#F9AB43"/>
<path d="M64.3967 30.5938C57.3267 30.5938 51.5752 36.3655 51.5752 43.4603C51.5752 50.5551 57.3267 56.3268 64.3967 56.3268C71.4667 56.3268 77.2183 50.5545 77.2183 43.4603C77.2183 36.3655 71.4667 30.5938 64.3967 30.5938ZM64.3967 33.0196C66.8302 33.0196 69.0695 33.865 70.8438 35.2749L56.2405 49.93C54.8356 48.1495 53.9931 45.9023 53.9931 43.4603C53.9926 37.7036 58.6602 33.0196 64.3967 33.0196ZM64.3967 53.9004C61.9632 53.9004 59.7239 53.0555 57.9497 51.6451L72.5529 36.9906C73.9584 38.7705 74.8003 41.0182 74.8003 43.4603C74.8009 49.217 70.1339 53.9004 64.3967 53.9004Z" fill="white"/>
<path d="M228.271 135.115L196.158 134.902L195.775 193.118L245.306 193.446L245.579 151.975L228.271 135.115Z" fill="#A7C9C3"/>
<path d="M228.271 135.114L245.58 151.975L228.161 151.859L228.271 135.114Z" fill="#BAEAE1"/>
<path d="M231.238 156.816L228.179 153.706L220.754 161.059L213.425 153.608L210.326 156.677L217.654 164.128L210.229 171.482L213.287 174.592L220.713 167.239L228.042 174.69L231.141 171.62L223.812 164.169L231.238 156.816Z" fill="#579C90"/>
<path d="M66.3603 90.2098L47.1424 80.5435L29.7402 115.384L59.3836 130.294L71.7793 105.475L66.3603 90.2098Z" fill="#A7C9C3"/>
<path d="M66.3608 90.21L71.7798 105.475L61.3555 100.231L66.3608 90.21Z" fill="#BAEAE1"/>
<path d="M61.7404 104.121L60.8212 101.346L54.1938 103.555L51.9914 96.9038L49.2254 97.8262L51.4272 104.477L44.7998 106.686L45.7189 109.463L52.3464 107.253L54.5488 113.904L57.3153 112.981L55.1129 106.331L61.7404 104.121Z" fill="#579C90"/>
<path d="M138.247 25.5371L122.866 30.56L131.908 58.4447L155.633 50.6977L149.192 30.8335L138.247 25.5371Z" fill="#A7C9C3"/>
<path d="M138.248 25.5371L149.193 30.8335L140.849 33.5577L138.248 25.5371Z" fill="#BAEAE1"/>
<path d="M143.105 35.4361L141.151 34.438L138.767 39.1376L134.083 36.7453L133.089 38.7068L137.772 41.0991L135.388 45.7987L137.343 46.7968L139.727 42.0972L144.41 44.4895L145.405 42.5274L140.722 40.1357L143.105 35.4361Z" fill="#579C90"/>
<path d="M185.732 22.8621L184.385 22.8574C184.104 21.6627 183.639 20.5421 183.02 19.522L183.977 18.5684C184.723 17.8248 184.728 16.6029 183.986 15.854L182.876 14.7316C182.134 13.9827 180.917 13.9781 180.171 14.7223L179.214 15.6759C178.201 15.0485 177.088 14.5737 175.9 14.2834L175.905 12.9314C175.908 11.8755 175.051 11.0087 173.998 11.0052L172.422 11C171.37 10.9965 170.506 11.857 170.503 12.9129L170.498 14.2649C169.308 14.5477 168.191 15.0138 167.174 15.6348L166.224 14.6743C165.483 13.9249 164.265 13.9209 163.519 14.6651L162.401 15.7794C161.655 16.5236 161.65 17.745 162.392 18.4938L163.342 19.4543C162.716 20.4703 162.243 21.5876 161.954 22.7805L160.606 22.7759C159.554 22.7724 158.69 23.6329 158.687 24.6888L158.682 26.2704C158.678 27.3263 159.536 28.1932 160.588 28.1966L161.935 28.2012C162.216 29.396 162.681 30.5166 163.3 31.5367L162.343 32.4903C161.597 33.2339 161.592 34.4558 162.334 35.2047L163.444 36.3271C164.185 37.076 165.403 37.0806 166.15 36.3364L167.106 35.3828C168.119 36.0108 169.232 36.485 170.421 36.7758L170.416 38.1278C170.413 39.1838 171.27 40.0506 172.323 40.0541L173.899 40.0593C174.951 40.0627 175.814 39.2023 175.818 38.1463L175.823 36.7943C177.013 36.5122 178.13 36.0455 179.147 35.4244L180.097 36.3849C180.838 37.1338 182.055 37.1384 182.802 36.3942L183.92 35.2799C184.666 34.5362 184.671 33.3143 183.929 32.5655L182.979 31.6055C183.605 30.5895 184.077 29.4723 184.367 28.2793L185.714 28.2839C186.766 28.2874 187.63 27.4269 187.634 26.371L187.639 24.7894C187.642 23.7329 186.784 22.8661 185.732 22.8621ZM173.141 30.885C170.193 30.8746 167.812 28.4684 167.822 25.5106C167.832 22.5527 170.23 20.1633 173.178 20.1731C176.125 20.1835 178.506 22.5891 178.497 25.5476C178.486 28.5054 176.088 30.8948 173.141 30.885Z" fill="#DE7160"/>
<path d="M173.187 17.8877C168.982 17.8733 165.56 21.2828 165.546 25.5024C165.532 29.7226 168.929 33.1558 173.134 33.1703C177.339 33.1847 180.76 29.7753 180.775 25.555C180.789 21.3354 177.392 17.9022 173.187 17.8877ZM173.144 30.2743C170.533 30.265 168.423 28.1335 168.432 25.5128C168.441 22.8921 170.565 20.775 173.177 20.7837C175.788 20.793 177.898 22.9245 177.889 25.5458C177.88 28.1659 175.756 30.2835 173.144 30.2743Z" fill="#F9AB43"/>
</svg>
